<?xml version="1.0" encoding="utf-8"?>
<!-- Generator: Adobe Illustrator 24.1.1, SVG Export Plug-In . SVG Version: 6.00 Build 0)  -->
<svg version="1.1" id="Capa_1" xmlns="http://www.w3.org/2000/svg" xmlns:xlink="http://www.w3.org/1999/xlink" x="0px" y="0px"
	 viewBox="0 0 300 300" style="enable-background:new 0 0 300 300;" xml:space="preserve">
<style type="text/css">
	.st0{fill:#003770;}
	.st1{fill:#00376F;}
</style>
<g>
	<path class="st0" d="M266.54,212.07l-11.87,11.87l-0.14,0.14l-11.87,11.84c-0.86,0.89-1.8,1.63-2.8,2.26
		c-0.63,0.97-1.37,1.92-2.23,2.8l-11.87,11.87l-0.14,0.11l-11.87,11.87c-3.46,3.49-8.1,5.09-12.64,4.92
		c-0.43,0.03-0.83,0.06-1.26,0.06h-33.75c-0.03,0-0.03,0-0.06,0c0,0-0.03,0-0.06,0h-33.75c0,0-0.03,0-0.06,0h-7.07
		c-0.06,0.09-0.11,0.17-0.2,0.26l-0.72,0.69c-0.03,0.06-0.03,0.09-0.09,0.11c-0.03,0.03-0.06,0.06-0.11,0.09l-10.96,10.98
		l-0.11,0.11l-11.87,11.87l-0.09,0.09c-6.61,6.64-17.36,6.64-24,0l-11.87-11.87l-0.14-0.11l-11.87-11.87l-7.58-7.61l-0.14-0.14
		l-11.87-11.87c-3.35-3.32-4.98-7.69-4.98-12.07c0-4.38,1.63-8.75,4.98-12.07l11.87-11.87l0.14-0.14l11.87-11.87
		c0.86-0.86,1.8-1.6,2.77-2.26c0.66-0.97,1.37-1.92,2.26-2.77l11.87-11.87l0.11-0.14l11.87-11.87c2-2,4.41-3.32,6.95-4.12
		c0.09-0.03,0.2-0.06,0.31-0.09c0.89-0.26,1.8-0.46,2.72-0.57c0.29-0.03,0.57-0.06,0.89-0.09c0.54-0.03,1.09-0.09,1.63-0.06h33.41
		c0.03,0,0.06,0,0.06,0h33.75c9.38,0,16.99,7.58,16.99,16.96c0,9.38-7.58,16.99-16.99,16.99h-39.82l0.09,0.09
		c-8.35,0.86-14.9,7.92-14.9,16.53c0,4.61,1.86,8.75,4.86,11.76c3.03,3,7.18,4.86,11.76,4.86h38.02c0.03,0,0.06,0,0.06,0
		c0.03,0,0.03,0,0.06,0h28.63l18.91-18.91c0.86-0.86,1.8-1.6,2.77-2.23c0.66-1,1.37-1.95,2.26-2.8l11.87-11.87l0.11-0.14
		l11.87-11.84c6.64-6.64,17.39-6.66,24.03,0C273.15,194.68,273.18,205.43,266.54,212.07z"/>
	<g>
		<path class="st1" d="M213.13,49.46c0,32.31-0.02,64.62,0.04,96.93c0,1.6-0.31,1.91-1.91,1.91c-40.85-0.06-81.69-0.06-122.54,0
			c-1.6,0-1.91-0.31-1.91-1.91c0.06-32.46,0.04-64.93,0.04-97.39c1-0.42,0.82-1.4,1.03-2.18c3.46-12.66,11.54-20.61,24.32-23.67
			c4.73-1.13,9.58-0.63,14.38-0.64c1.7-0.01,2.45-0.47,2.67-2.29c1.14-9.43,7.48-16.27,16.72-18.25c0.71-0.15,1.62,0.02,1.93-0.96
			c1.24,0,2.48,0,3.73,0c0.29,0.86,1.09,0.75,1.73,0.89c9.9,2.09,16.1,8.7,17.33,18.69c0.19,1.55,0.84,1.94,2.23,1.91
			c2.56-0.05,5.12-0.01,7.67-0.01c15.64,0.02,28.01,9.86,31.55,25.09C212.31,48.27,212.13,49.18,213.13,49.46z M149.78,22.47
			c5.04,0,10.08,0,15.11,0c3.42,0,3.67-0.33,2.89-3.79c-1.94-8.57-9.82-14.64-18.51-14.26c-8.84,0.39-16.08,6.92-17.43,15.6
			c-0.29,1.88,0.26,2.51,2.14,2.48C139.23,22.41,144.51,22.47,149.78,22.47z"/>
	</g>
</g>
</svg>
