<?xml version="1.0" encoding="utf-8"?>
<!-- Generator: Adobe Illustrator 24.1.1, SVG Export Plug-In . SVG Version: 6.00 Build 0)  -->
<svg version="1.1" id="Capa_1" xmlns="http://www.w3.org/2000/svg" xmlns:xlink="http://www.w3.org/1999/xlink" x="0px" y="0px"
	 viewBox="0 0 300 300" style="enable-background:new 0 0 300 300;" xml:space="preserve">
<style type="text/css">
	.st0{fill:#003770;}
	.st1{fill:#00376F;}
</style>
<g>
	<path class="st1" d="M270.54,212.07l-11.87,11.87l-0.14,0.14l-11.87,11.84c-0.86,0.89-1.8,1.63-2.8,2.26
		c-0.63,0.97-1.37,1.92-2.23,2.8l-11.87,11.87l-0.14,0.11l-11.87,11.87c-3.46,3.49-8.1,5.09-12.64,4.92
		c-0.43,0.03-0.83,0.06-1.26,0.06h-33.75c-0.03,0-0.03,0-0.06,0c0,0-0.03,0-0.06,0h-33.75c0,0-0.03,0-0.06,0h-7.07
		c-0.06,0.09-0.11,0.17-0.2,0.26l-0.72,0.69c-0.03,0.06-0.03,0.09-0.09,0.11c-0.03,0.03-0.06,0.06-0.11,0.09l-10.96,10.98
		l-0.11,0.11l-11.87,11.87l-0.09,0.09c-6.61,6.64-17.36,6.64-24,0l-11.87-11.87l-0.14-0.11l-11.87-11.87l-7.58-7.61l-0.14-0.14
		l-11.87-11.87c-3.35-3.32-4.98-7.69-4.98-12.07c0-4.38,1.63-8.75,4.98-12.07l11.87-11.87l0.14-0.14l11.87-11.87
		c0.86-0.86,1.8-1.6,2.77-2.26c0.66-0.97,1.37-1.92,2.26-2.77l11.87-11.87l0.11-0.14l11.87-11.87c2-2,4.41-3.32,6.95-4.12
		c0.09-0.03,0.2-0.06,0.31-0.09c0.89-0.26,1.8-0.46,2.72-0.57c0.29-0.03,0.57-0.06,0.89-0.09c0.54-0.03,1.09-0.09,1.63-0.06h33.41
		c0.03,0,0.06,0,0.06,0h33.75c9.38,0,16.99,7.58,16.99,16.96c0,9.38-7.58,16.99-16.99,16.99h-39.82l0.09,0.09
		c-8.35,0.86-14.9,7.92-14.9,16.53c0,4.61,1.86,8.75,4.86,11.76c3.03,3,7.18,4.86,11.76,4.86h38.02c0.03,0,0.06,0,0.06,0
		c0.03,0,0.03,0,0.06,0h28.63l18.91-18.91c0.86-0.86,1.8-1.6,2.77-2.23c0.66-1,1.37-1.95,2.26-2.8l11.87-11.87l0.11-0.14
		l11.87-11.84c6.64-6.64,17.39-6.66,24.03,0C277.15,194.68,277.18,205.43,270.54,212.07z"/>
	<g>
		<path class="st1" d="M122.98,31.37c0-4.46-0.03-9.1,0.01-13.75c0.09-10.25,6.3-16.53,16.45-16.58c9.78-0.05,19.57-0.06,29.35,0
			c9.68,0.06,16.02,6.35,16.18,16.01c0.08,4.79,0.01,9.59,0.01,14.93c4.82,0,9.32,0,13.81,0c5.51,0,11.02-0.07,16.54,0.02
			c9.78,0.15,16.05,6.35,16.07,16.08c0.06,27.97,0.05,55.95,0.01,83.92c-0.02,9.85-6.43,16.23-16.35,16.27
			c-18.74,0.06-37.48,0.02-56.22,0.02c-21.63,0-43.27,0.01-64.9,0c-11.27-0.01-17.4-6.09-17.4-17.31c0-27.42,0.01-54.84,0.06-82.26
			c0.02-10.51,6.16-16.64,16.7-16.71c9.51-0.06,19.01-0.08,28.52-0.13C122.06,31.86,122.3,31.67,122.98,31.37z M169.12,31.81
			c0-5,0-10,0-15.17c-10.15,0-20.24,0-30.35,0c0,5.23,0,10.12,0,15.17C148.96,31.81,158.86,31.81,169.12,31.81z"/>
	</g>
</g>
</svg>
