<?xml version="1.0" encoding="utf-8"?>
<!-- Generator: Adobe Illustrator 24.1.1, SVG Export Plug-In . SVG Version: 6.00 Build 0)  -->
<svg version="1.1" id="Capa_1" xmlns="http://www.w3.org/2000/svg" xmlns:xlink="http://www.w3.org/1999/xlink" x="0px" y="0px"
	 viewBox="0 0 300 300" style="enable-background:new 0 0 300 300;" xml:space="preserve">
<style type="text/css">
	.st0{fill:#003770;}
	.st1{fill:#00366F;}
	.st2{fill:#00366E;}
	.st3{fill:none;}
	.st4{fill:#CA9E67;enable-background:new    ;}
	.st5{fill:#8E715A;}
	.st6{fill:#68AA65;}
	.st7{fill:#022342;enable-background:new    ;}
	.st8{opacity:0.8;fill:#FCEA10;enable-background:new    ;}
	.st9{fill:#2B4C6B;enable-background:new    ;}
	.st10{fill:#E24453;enable-background:new    ;}
	.st11{fill:#212121;enable-background:new    ;}
	.st12{fill:#CA9E67;}
	.st13{fill:#828282;}
</style>
<g>
	<path class="st0" d="M103.16,295c-0.52-2.03-2.36-1.61-3.74-1.95c-20.07-4.89-32.95-21.08-32.97-41.84
		c-0.06-55.42-0.03-110.85-0.02-166.27c0-14.81,6.12-26.48,18.03-35.22c2.43-1.79,3.82-2.08,5.41,1.23
		c3.94,8.16,10.74,12.27,19.84,12.28c26.72,0.04,53.44,0.02,80.16,0.01c9.26,0,16.21-4.01,20.26-12.37
		c1.42-2.92,2.75-3.05,5.16-1.32c10.33,7.45,16.58,17.33,18.02,30.07c0.27,2.42,0.25,4.88,0.25,7.32c0.01,54.05,0.02,108.1,0,162.15
		c-0.01,23.45-11.37,38.15-34.02,44.13c-1.15,0.3-2.5,0.29-2.9,1.79C165.49,295,134.32,295,103.16,295z M103.06,209.29
		c1.69-0.08,3.27-0.67,4.37-2.04c2.51-3.13,4.77-3.58,7.68-0.24c2.55,2.93,5.95,3.36,8.87,0.5c2.95-2.9,2.44-6.31-0.45-8.85
		c-3.26-2.86-2.89-4.88,0.09-7.68c3.03-2.85,2.96-6.55,0.28-8.84c-2.91-2.48-6.12-2.39-8.54,0.45c-2.92,3.44-5.06,3.24-7.95-0.05
		c-2.43-2.76-5.72-3.04-8.51-0.35c-2.77,2.67-2.83,6.05-0.02,8.48c3.84,3.32,3.16,5.73-0.27,8.68c-1.87,1.61-2.08,3.98-1.03,6.33
		C98.63,208.04,100.51,209.1,103.06,209.29z M129.9,115.13c-0.07-3-1.09-4.87-3.21-5.82c-2.41-1.08-4.87-0.78-6.84,1.04
		c-2.91,2.7-5.82,5.43-8.45,8.39c-2.71,3.06-4.92,4.59-8.21,0.48c-2.32-2.9-5.74-3.06-8.48-0.4c-2.74,2.66-2.42,5.84,0.04,8.6
		c2.33,2.62,4.85,5.08,7.41,7.49c3.55,3.34,6.5,3.36,9.99-0.03c5.15-5,10.16-10.14,15.24-15.21
		C128.83,118.23,129.98,116.66,129.9,115.13z M107.04,170.04c2.02-0.08,3.48-0.85,4.7-2.07c5.39-5.38,10.84-10.69,16.12-16.17
		c2.74-2.85,2.74-6.73,0.23-8.95c-2.94-2.59-5.92-2.02-8.59,0.43c-2.8,2.57-5.6,5.18-8.09,8.05c-2.77,3.2-5.02,4.29-8.29,0.4
		c-2.34-2.78-5.64-2.9-8.51-0.29c-2.49,2.27-2.29,6.01,0.44,8.91c2.4,2.55,4.94,4.96,7.4,7.45
		C103.8,169.17,105.36,170,107.04,170.04z M184.66,158.73c9.14,0,18.28,0.04,27.43-0.03c2.22-0.01,5.13,0.32,5.25-2.92
		c0.12-3.17-2.64-3.31-4.96-3.31c-18.44-0.03-36.87-0.04-55.31,0c-2.29,0.01-5.1,0.04-5.03,3.23c0.07,3.23,2.96,2.98,5.19,2.99
		C166.37,158.76,175.52,158.73,184.66,158.73z M184.78,197.99c2.59,0,5.18,0,7.77,0c7-0.01,14.01-0.02,21.01-0.06
		c2.02-0.01,3.78-0.72,3.82-3.01c0.04-2.33-1.8-2.93-3.75-3.14c-0.6-0.07-1.22-0.07-1.82-0.07c-18.12,0-36.24-0.02-54.36,0.02
		c-2.44,0-5.49-0.05-5.37,3.36c0.1,3.1,3.02,2.88,5.29,2.89C166.5,198,175.64,197.98,184.78,197.99z M184.39,126.19
		c9.29,0,18.59,0.01,27.88-0.01c2.34-0.01,5.1-0.05,5.06-3.18c-0.04-3.1-2.77-3.12-5.13-3.12c-18.28-0.01-36.56-0.01-54.84,0
		c-2.29,0-5.15-0.2-5.27,2.92c-0.13,3.45,2.89,3.36,5.33,3.37C166.41,126.21,175.4,126.19,184.39,126.19z"/>
	<path class="st0" d="M149.72,61.18c-13.43,0-26.86,0.15-40.29-0.05C100.6,61,93.67,55.78,90.97,47.88
		c-2.64-7.72-0.17-16.27,6.25-21.46c3.84-3.1,8.35-4.35,13.21-4.39c5.95-0.05,11.9-0.09,17.86-0.02c2.46,0.03,3.73-0.74,4.51-3.35
		c2.65-8.84,8.96-13.65,17.24-13.67c8.19-0.02,14.52,4.87,17.19,13.75c0.79,2.64,2.19,3.29,4.6,3.26c5.8-0.06,11.6-0.08,17.4,0.02
		c12.23,0.2,20.89,8.37,20.93,19.66c0.04,11.04-8.94,19.43-21.05,19.5c-13.13,0.07-26.25,0.02-39.38,0.02
		C149.72,61.19,149.72,61.18,149.72,61.18z M165.49,22.7c0.08-8.46-6.88-15.48-15.36-15.49c-8.59-0.02-15.5,6.71-15.68,15.26
		c-0.17,8.37,6.79,15.59,15.21,15.79C158.32,38.45,165.41,31.49,165.49,22.7z"/>
</g>
</svg>
