<?xml version="1.0" encoding="utf-8"?>
<!-- Generator: Adobe Illustrator 24.1.1, SVG Export Plug-In . SVG Version: 6.00 Build 0)  -->
<svg version="1.1" id="Capa_1" xmlns="http://www.w3.org/2000/svg" xmlns:xlink="http://www.w3.org/1999/xlink" x="0px" y="0px"
	 viewBox="0 0 300 300" style="enable-background:new 0 0 300 300;" xml:space="preserve">
<style type="text/css">
	.st0{fill:#003770;}
	.st1{fill:#00366F;}
	.st2{fill:#00366E;}
	.st3{fill:none;}
	.st4{fill:#CA9E67;enable-background:new    ;}
	.st5{fill:#8E715A;}
	.st6{fill:#68AA65;}
	.st7{fill:#022342;enable-background:new    ;}
	.st8{opacity:0.8;fill:#FCEA10;enable-background:new    ;}
	.st9{fill:#2B4C6B;enable-background:new    ;}
	.st10{fill:#E24453;enable-background:new    ;}
	.st11{fill:#212121;enable-background:new    ;}
	.st12{fill:#CA9E67;}
	.st13{fill:#828282;}
</style>
<g>
	<path class="st0" d="M182.62,153.59c1.71,1.71,3.52,3.27,5.4,4.69v98.73c0,20.97-16.99,37.99-37.99,37.99
		c-20.97,0-37.99-16.99-37.99-37.99v-98.76c1.88-1.42,3.66-2.95,5.37-4.66l32.62-32.62L182.62,153.59z"/>
	<path class="st0" d="M250.35,85.86l-67.35-67.35C174.23,9.7,162.54,4.83,150.03,5c-12.44-0.14-24.17,4.69-33.02,13.5L49.67,85.86
		c-8.71,8.71-13.5,20.29-13.5,32.59c0,12.33,4.8,23.92,13.5,32.62c8.71,8.71,20.29,13.5,32.62,13.5c11.02,0,21.47-3.84,29.75-10.91
		c0.99-0.82,1.92-1.67,2.84-2.59l35.15-35.11l35.11,35.11c0.92,0.92,1.88,1.81,2.88,2.67c8.32,7,18.73,10.84,29.75,10.84
		c12.3,0,23.88-4.8,32.59-13.5C268.33,133.12,268.33,103.84,250.35,85.86z"/>
</g>
</svg>
