<?xml version="1.0" encoding="utf-8"?>
<!-- Generator: Adobe Illustrator 24.1.1, SVG Export Plug-In . SVG Version: 6.00 Build 0)  -->
<svg version="1.1" id="Capa_1" xmlns="http://www.w3.org/2000/svg" xmlns:xlink="http://www.w3.org/1999/xlink" x="0px" y="0px"
	 viewBox="0 0 300 300" style="enable-background:new 0 0 300 300;" xml:space="preserve">
<style type="text/css">
	.st0{fill:#003770;}
	.st1{fill:#00366F;}
	.st2{fill:#00366E;}
	.st3{fill:none;}
	.st4{fill:#CA9E67;enable-background:new    ;}
	.st5{fill:#8E715A;}
	.st6{fill:#68AA65;}
	.st7{fill:#022342;enable-background:new    ;}
	.st8{opacity:0.8;fill:#FCEA10;enable-background:new    ;}
	.st9{fill:#2B4C6B;enable-background:new    ;}
	.st10{fill:#E24453;enable-background:new    ;}
	.st11{fill:#212121;enable-background:new    ;}
	.st12{fill:#CA9E67;}
	.st13{fill:#828282;}
</style>
<g>
	<path class="st0" d="M95.25,295c-0.55-2.19-2.63-1.85-4.1-2.31c-20.93-6.68-33.52-23.75-33.53-45.75
		c-0.02-47.73-0.01-95.46-0.01-143.19c0-5.95,0.01-5.94,5.44-3.41c5.35,2.49,11,3.66,16.9,3.66c46.81,0,93.63,0.01,140.44-0.01
		c6.22,0,12.19-1.29,17.65-4.29c3.01-1.65,4.26-1.49,4.26,2.38c-0.08,49.41,0.11,98.83-0.17,148.24
		c-0.11,19.25-14.03,36.51-32.64,42.17c-1.75,0.53-4.16,0.05-5,2.5C168.08,295,131.66,295,95.25,295z M139.17,197.34
		c0,11.15-0.05,22.3,0.02,33.45c0.04,7.54,4.15,12.28,10.56,12.42c6.3,0.14,11.06-4.71,11.1-11.98c0.13-22.45,0.13-44.9,0-67.35
		c-0.04-7.34-4.78-12.14-11.08-11.94c-6.4,0.2-10.54,4.99-10.58,12.41C139.13,175.35,139.17,186.35,139.17,197.34z M186.43,197.73
		c0,11.61-0.16,23.21,0.06,34.82c0.12,6.51,5.15,11.13,11.17,10.93c5.91-0.19,10.42-4.77,10.45-11.15
		c0.09-23.06,0.1-46.12-0.02-69.18c-0.03-6.14-4.44-10.55-10.2-10.89c-6.42-0.38-11.33,4.38-11.43,11.57
		C186.3,175.12,186.42,186.42,186.43,197.73z M91.74,197.21c0.01,0,0.01,0,0.02,0c0,11.76-0.14,23.53,0.06,35.28
		c0.11,6.43,5.15,11.12,11.12,10.98c5.82-0.14,10.5-4.79,10.53-11.09c0.11-23.07,0.1-46.13,0-69.2c-0.03-5.51-3.47-9.52-8.39-10.63
		c-7.11-1.6-13.18,3.35-13.29,11.21C91.62,174.91,91.74,186.06,91.74,197.21z"/>
	<path class="st0" d="M150.34,100.24c-23.09,0-46.19,0.05-69.28-0.02c-17.12-0.05-30.43-9.69-34.53-24.81
		c-5.78-21.32,9.76-42.3,31.88-42.74c12.84-0.25,25.7-0.17,38.54,0c3.74,0.05,5.29-1.04,5.95-4.95
		C125.11,14.59,136.49,5.16,149.63,5c13.21-0.15,24.79,8.95,27.25,22.04c0.82,4.34,2.39,5.77,6.81,5.67
		c11.92-0.29,23.86-0.13,35.79-0.09c19.95,0.06,35.04,14.42,35.22,33.45c0.18,18.98-14.62,33.84-34.6,34.09
		c-23.24,0.29-46.49,0.07-69.74,0.07C150.34,100.22,150.34,100.23,150.34,100.24z M149.74,32.59c0,0,0,0.01,0,0.01
		c6.42,0,12.84-0.19,19.25,0.07c4.13,0.16,5.01-1.51,4.27-5.21C171.17,17.13,160.9,8.8,150.04,8.79
		c-11.11-0.01-21.42,8.4-23.4,19.01c-0.6,3.22,0.16,4.93,3.85,4.84C136.9,32.48,143.32,32.59,149.74,32.59z"/>
</g>
</svg>
