<?xml version="1.0" encoding="utf-8"?>
<!-- Generator: Adobe Illustrator 24.1.1, SVG Export Plug-In . SVG Version: 6.00 Build 0)  -->
<svg version="1.1" id="Capa_1" xmlns="http://www.w3.org/2000/svg" xmlns:xlink="http://www.w3.org/1999/xlink" x="0px" y="0px"
	 viewBox="0 0 300 300" style="enable-background:new 0 0 300 300;" xml:space="preserve">
<style type="text/css">
	.st0{fill:#003770;}
	.st1{fill:#00366F;}
	.st2{fill:#00366E;}
	.st3{fill:none;}
	.st4{fill:#CA9E67;enable-background:new    ;}
	.st5{fill:#8E715A;}
	.st6{fill:#68AA65;}
	.st7{fill:#022342;enable-background:new    ;}
	.st8{opacity:0.8;fill:#FCEA10;enable-background:new    ;}
	.st9{fill:#2B4C6B;enable-background:new    ;}
	.st10{fill:#E24453;enable-background:new    ;}
	.st11{fill:#212121;enable-background:new    ;}
	.st12{fill:#CA9E67;}
	.st13{fill:#828282;}
</style>
<g>
	<path class="st1" d="M295.03,62.52c-2.7,0.4-2.35,2.87-2.88,4.55c-3.67,11.66-10.49,20.91-20.9,27.34
		c-2.73,1.69-4.04,3.73-4.6,6.92c-2.13,12.11-7.81,22.47-16.46,31.14c-41.57,41.66-83.2,83.24-124.7,124.97
		c-3.26,3.28-5.18,3.23-8.41-0.03c-25.03-25.29-50.18-50.46-75.45-75.51c-3.13-3.1-3.05-4.9,0.02-7.96
		c41.55-41.4,82.98-82.91,124.44-124.4c8.96-8.96,19.56-14.84,32.06-17.15c2.32-0.43,4.45-0.8,5.85-3.23
		C210,18.74,218.9,11.73,230.1,7.56c1.27-0.47,2.69-0.79,2.76-2.56c8.6,0,17.2,0,25.8,0c0.13,2.07,1.93,2.21,3.29,2.74
		c15.46,5.98,25.64,16.85,30.42,32.76c0.42,1.41,0.47,3.22,2.64,3.24C295.03,50,295.03,56.26,295.03,62.52z M246.38,11.78
		c-23.23-0.35-41.79,17.75-42.15,41.09c-0.35,23.02,18.15,41.96,41.21,42.19c22.87,0.23,41.44-17.94,41.85-40.93
		C287.72,30.89,269.59,12.13,246.38,11.78z"/>
	<path class="st2" d="M5.32,287.92c3.3-0.86,2.77-3.99,3.37-6.21c8.14-29.98,16.12-60,24.17-90.01c1.9-7.1,1.96-7.1,7.1-1.96
		c23.07,23.08,46.14,46.16,69.19,69.26c5.27,5.28,5.17,5.65-2.19,7.62c-30.54,8.2-61.1,16.35-91.62,24.64
		c-2.35,0.64-5.76-0.01-6.5,3.7C1.85,295.52,6.77,290.13,5.32,287.92z"/>
</g>
</svg>
