<?xml version="1.0" encoding="utf-8"?>
<!-- Generator: Adobe Illustrator 24.1.1, SVG Export Plug-In . SVG Version: 6.00 Build 0)  -->
<svg version="1.1" id="Capa_1" xmlns="http://www.w3.org/2000/svg" xmlns:xlink="http://www.w3.org/1999/xlink" x="0px" y="0px"
	 viewBox="0 0 300 300" style="enable-background:new 0 0 300 300;" xml:space="preserve">
<style type="text/css">
	.st0{fill:#003770;}
	.st1{fill:#00366F;}
	.st2{fill:#00366E;}
	.st3{fill:none;}
	.st4{fill:#CA9E67;enable-background:new    ;}
	.st5{fill:#8E715A;}
	.st6{fill:#68AA65;}
	.st7{fill:#022342;enable-background:new    ;}
	.st8{opacity:0.8;fill:#FCEA10;enable-background:new    ;}
	.st9{fill:#2B4C6B;enable-background:new    ;}
	.st10{fill:#E24453;enable-background:new    ;}
	.st11{fill:#212121;enable-background:new    ;}
	.st12{fill:#CA9E67;}
	.st13{fill:#828282;}
</style>
<g>
	<path class="st0" d="M81.92,295c-0.74-1.83-2.47-1.54-3.9-1.75c-36.39-5.31-62.3-34.88-62.43-71.76
		c-0.16-47.78-0.12-95.57-0.02-143.36c0.08-40.99,30.8-72.49,71.89-72.9c46.1-0.46,92.21-0.08,138.32-0.17
		c4.05-0.01,5.6,1.17,5.55,5.49c-0.21,19.54-0.08,39.08-0.11,58.62c0,1.31,0.66,3.2-0.65,3.8c-1.65,0.75-2.54-1.24-3.62-2.18
		c-13.4-11.64-32.75-12.69-47.06-2.51c-14.44,10.27-19.6,28.47-12.82,45.21c1.85,4.57,1.85,4.62-3.39,4.62
		c-22.29,0.02-44.58-0.12-66.87,0.07c-17.67,0.15-31.43,14.2-31.37,31.58c0.05,15.47,11.9,28.91,27.26,30.78
		c3.02,0.37,6.09,0.42,9.14,0.43c20.61,0.04,41.22,0,61.83,0.04c4.95,0.01,5.07,0.29,3.24,4.86c-6.63,16.53-1.38,34.75,12.9,44.79
		c14.41,10.13,33.93,9.15,47.09-2.37c1.11-0.97,2.22-1.94,4.34-3.79c0,24.3,0,47.4,0,70.5C181.47,295,131.69,295,81.92,295z"/>
	<path class="st0" d="M284.51,149.64c0.14,8.7-2.94,16.17-9.04,22.27c-16.95,16.93-33.85,33.92-51.07,50.56
		c-13.3,12.85-33.06,12.37-45.61-0.55c-12.25-12.61-11.73-31.65,1.27-44.73c8.07-8.12,16.08-16.29,24.39-24.16
		c3.03-2.87,2.72-4.55-0.12-7.24c-8.62-8.21-17.21-16.46-25.39-25.09c-16.75-17.66-8.95-45.87,14.4-52.23
		c11.48-3.13,21.98-0.59,30.5,7.67c17.42,16.88,34.56,34.06,51.74,51.19C281.69,133.41,284.48,140.77,284.51,149.64z"/>
	<path class="st0" d="M131.11,174.99c-10.98,0-21.96,0.04-32.94-0.01c-15.07-0.07-26.46-10.7-26.74-24.92
		c-0.28-14.04,10.39-25.62,25.22-25.92c23.48-0.48,46.97-0.14,70.45-0.17c1.93,0,3.51,0.57,4.91,1.98
		c7,7.02,14.01,14.02,21.11,20.94c1.91,1.86,2.2,3.17,0.09,5.2c-7.25,6.98-14.38,14.09-21.43,21.27c-1.64,1.67-3.48,1.63-5.45,1.64
		C154.59,175,142.85,174.99,131.11,174.99z"/>
</g>
</svg>
