<?xml version="1.0" encoding="utf-8"?>
<!-- Generator: Adobe Illustrator 24.1.1, SVG Export Plug-In . SVG Version: 6.00 Build 0)  -->
<svg version="1.1" id="Capa_1" xmlns="http://www.w3.org/2000/svg" xmlns:xlink="http://www.w3.org/1999/xlink" x="0px" y="0px"
	 viewBox="0 0 300 300" style="enable-background:new 0 0 300 300;" xml:space="preserve">
<style type="text/css">
	.st0{fill:#003770;}
	.st1{fill:#00366F;}
	.st2{fill:#00366E;}
	.st3{fill:none;}
	.st4{fill:#CA9E67;enable-background:new    ;}
	.st5{fill:#8E715A;}
	.st6{fill:#68AA65;}
	.st7{fill:#022342;enable-background:new    ;}
	.st8{opacity:0.8;fill:#FCEA10;enable-background:new    ;}
	.st9{fill:#2B4C6B;enable-background:new    ;}
	.st10{fill:#E24453;enable-background:new    ;}
	.st11{fill:#212121;enable-background:new    ;}
	.st12{fill:#CA9E67;}
	.st13{fill:#828282;}
</style>
<g>
	<path class="st0" d="M158.14,5c3.01,0.83,6.01,1.69,9.03,2.49c51.39,13.46,69.22,76.37,32.76,115.02
		c-3.14,3.33-5.7,7.84-6.89,12.25c-13.9,51.54-27.48,103.16-41.16,154.76c-0.37,1.4-0.95,2.74-1.91,5.48
		c-4.67-17.42-9.06-33.61-13.35-49.82c-9.88-37.29-19.63-74.62-29.68-111.87c-0.95-3.53-3.1-7.09-5.6-9.79
		c-18.78-20.24-25.3-43.75-16.88-70.02c8.3-25.9,26.66-41.66,53.57-47.03c1.39-0.28,2.7-0.97,4.05-1.47C147.43,5,152.78,5,158.14,5z
		 M149.78,37.94c-20.34,0.17-36.27,16.4-36.11,36.83c0.15,20.3,16.58,36.51,36.77,36.27c20.31-0.24,36.29-16.58,36.11-36.92
		C186.37,53.73,170.16,37.77,149.78,37.94z"/>
</g>
</svg>
