<?xml version="1.0" encoding="utf-8"?>
<!-- Generator: Adobe Illustrator 24.1.1, SVG Export Plug-In . SVG Version: 6.00 Build 0)  -->
<svg version="1.1" id="Capa_1" xmlns="http://www.w3.org/2000/svg" xmlns:xlink="http://www.w3.org/1999/xlink" x="0px" y="0px"
	 viewBox="0 0 300 300" style="enable-background:new 0 0 300 300;" xml:space="preserve">
<style type="text/css">
	.st0{fill:#003770;}
	.st1{fill:#00366F;}
	.st2{fill:#00366E;}
	.st3{fill:none;}
	.st4{fill:#CA9E67;enable-background:new    ;}
	.st5{fill:#8E715A;}
	.st6{fill:#68AA65;}
	.st7{fill:#022342;enable-background:new    ;}
	.st8{opacity:0.8;fill:#FCEA10;enable-background:new    ;}
	.st9{fill:#2B4C6B;enable-background:new    ;}
	.st10{fill:#E24453;enable-background:new    ;}
	.st11{fill:#212121;enable-background:new    ;}
	.st12{fill:#CA9E67;}
	.st13{fill:#828282;}
</style>
<path class="st0" d="M190.05,5c0.4,2.49,2.7,2.21,4.27,2.72c9.95,3.21,19.43,7.42,28.6,12.44c3.48,1.9,4.26,3.5,2.29,7.44
	c-6.89,13.75-5.64,27.18,4.09,39.12c9.41,11.55,21.95,15.05,36.34,11.68c2.93-0.69,5.73-2.12,8.46-3.49
	c1.97-0.99,3.29-1.15,4.53,1.02c6.5,11.37,11.4,23.37,14.8,36.01c0.93,3.47-1.55,3.35-3.48,3.92
	c-14.81,4.32-23.93,13.98-26.41,29.22c-2.94,18.1,8.01,34.95,25.73,39.69c4.06,1.09,4.75,2.55,3.61,6.3
	c-3.3,10.88-7.41,21.4-12.8,31.43c-1.63,3.03-2.93,3.45-5.92,1.41c-15.29-10.4-33.65-8.66-46.05,4.1
	c-12.16,12.51-13.37,31.43-2.6,46.27c2.32,3.2,1.17,4.23-1.5,5.77c-10.41,5.99-21.35,10.68-32.87,14.04
	c-5.37,1.57-5.37,1.57-6.37-3.91c-4.21-23.04-27.78-36.01-48.96-26.71c-11.82,5.19-18.79,14.56-20.82,27.24
	c-0.64,3.98-1.85,4.8-5.53,3.69c-11.05-3.31-21.58-7.79-31.76-13.2c-3.31-1.76-3.76-3.19-1.67-6.55
	c13.53-21.78,1.32-49.57-23.71-54.12c-9.3-1.69-18.05,0.19-25.8,5.61c-2.83,1.98-4.08,1.32-5.6-1.4c-6-10.75-10.64-22.04-14.1-33.85
	c-1.06-3.63-0.2-5.03,3.53-6.09c16.15-4.62,26.25-18.26,26.19-34.73c-0.06-15.97-10.34-29.39-26.46-34.03
	c-3.51-1.01-4.27-2.35-3.3-5.8c3.44-12.16,8.33-23.66,14.51-34.66c1.57-2.8,2.78-3.53,5.91-1.59c14.45,8.98,32.01,7.16,43.6-4.16
	c12.14-11.85,14.36-29.62,5.37-44.65c-1.57-2.62-1.32-3.88,1.34-5.35c9.01-4.98,18.41-9.03,28.21-12.18
	c1.59-0.51,3.86-0.23,4.37-2.65c1.53,0,3.06,0,4.6,0c3.97,22.31,23.19,35.51,44.04,30.24c14.26-3.6,25.86-17.19,25.83-30.24
	C186.37,5,188.21,5,190.05,5z M149.86,114.86c-19.78,0.1-35.41,16-35.27,35.89c0.14,19.85,16.02,35.51,35.83,35.34
	c19.26-0.17,35.13-16.47,34.95-35.9C185.18,130.63,169.23,114.76,149.86,114.86z"/>
</svg>
