<?xml version="1.0" encoding="utf-8"?>
<!-- Generator: Adobe Illustrator 24.1.1, SVG Export Plug-In . SVG Version: 6.00 Build 0)  -->
<svg version="1.1" id="Capa_1" xmlns="http://www.w3.org/2000/svg" xmlns:xlink="http://www.w3.org/1999/xlink" x="0px" y="0px"
	 viewBox="0 0 300 300" style="enable-background:new 0 0 300 300;" xml:space="preserve">
<style type="text/css">
	.st0{fill:#003770;}
	.st1{fill:#00366F;}
	.st2{fill:#00366E;}
	.st3{fill:none;}
	.st4{fill:#CA9E67;enable-background:new    ;}
	.st5{fill:#8E715A;}
	.st6{fill:#68AA65;}
	.st7{fill:#022342;enable-background:new    ;}
	.st8{opacity:0.8;fill:#FCEA10;enable-background:new    ;}
	.st9{fill:#2B4C6B;enable-background:new    ;}
	.st10{fill:#E24453;enable-background:new    ;}
	.st11{fill:#212121;enable-background:new    ;}
	.st12{fill:#CA9E67;}
	.st13{fill:#828282;}
</style>
<path class="st0" d="M296.15,183.89c-2.02,0.46-1.77,2.32-2.15,3.69c-2.49,8.94-6.95,16.7-13.56,23.25
	c-23.61,23.4-47.06,46.96-70.81,70.21c-18.99,18.59-49.91,18.63-68.89-0.02c-32.49-31.93-64.73-64.11-97.01-96.25
	c-6.22-6.2-10.37-13.68-12.66-22.2c-8.41-31.35-16.92-62.67-25.32-94.02c-10.2-38.07,22.2-71.5,60.43-61.89
	c32.52,8.17,64.84,17.12,97.23,25.82c8.49,2.28,15.77,6.76,22.02,12.98c31.74,31.59,63.49,63.17,95.27,94.72
	c6.61,6.57,11.02,14.34,13.38,23.33c0.37,1.4,0.08,3.22,2.07,3.75C296.15,172.8,296.15,178.35,296.15,183.89z M64.83,31.24
	c-19.31,0.05-34.72,15.32-34.75,34.43c-0.03,19.32,15.52,34.95,34.81,35c19.2,0.05,35.15-15.78,35.1-34.82
	C99.93,46.61,84.27,31.18,64.83,31.24z"/>
</svg>
