<?xml version="1.0" encoding="utf-8"?>
<!-- Generator: Adobe Illustrator 24.1.1, SVG Export Plug-In . SVG Version: 6.00 Build 0)  -->
<svg version="1.1" id="Capa_1" xmlns="http://www.w3.org/2000/svg" xmlns:xlink="http://www.w3.org/1999/xlink" x="0px" y="0px"
	 viewBox="0 0 300 300" style="enable-background:new 0 0 300 300;" xml:space="preserve">
<style type="text/css">
	.st0{fill:#003770;}
	.st1{fill:#00366F;}
	.st2{fill:#00366E;}
	.st3{fill:none;}
	.st4{fill:#CA9E67;enable-background:new    ;}
	.st5{fill:#8E715A;}
	.st6{fill:#68AA65;}
	.st7{fill:#022342;enable-background:new    ;}
	.st8{opacity:0.8;fill:#FCEA10;enable-background:new    ;}
	.st9{fill:#2B4C6B;enable-background:new    ;}
	.st10{fill:#E24453;enable-background:new    ;}
	.st11{fill:#212121;enable-background:new    ;}
	.st12{fill:#CA9E67;}
	.st13{fill:#828282;}
</style>
<g>
	<path class="st0" d="M5,71.29c1.98-0.27,1.89-2.12,2.43-3.38c6.32-14.83,17.66-22.85,33.6-23.15c24.14-0.46,48.3-0.43,72.45-0.03
		c20.08,0.33,34.66,14.95,35.92,35.03c0.11,1.78,0.11,3.58,0.11,5.36c0.01,54.27,0.01,108.53,0,162.8c0,7.4-0.02,7.41-7.36,7.41
		c-17.89,0.01-35.78-0.01-53.67,0.02c-2.71,0-4.61,0.3-3.9-3.91c0.83-4.93,0.24-10.1,0.19-15.17c-0.03-2.7-1.58-4.07-4.21-4.23
		c-1.49-0.09-2.98-0.12-4.47-0.09c-5.58,0.1-6.7,1.06-6.57,6.51c0.12,5.03-0.86,10.13,0.69,15.09c0.37,1.2-0.18,1.68-1.28,1.72
		c-1.19,0.05-2.38,0.06-3.58,0.06c-20.12,0.09-40.24,0.17-60.36,0.26C5,194.15,5,132.72,5,71.29z M119.25,75.87
		c0.03-6.92-0.94-7.97-7.45-8c-7.31-0.04-8.22,0.81-8.24,7.66c-0.02,6.98,0.92,7.99,7.42,8.03
		C118.15,83.61,119.22,82.61,119.25,75.87z M84.92,106.21c0-7.02-0.75-7.79-7.51-7.82c-7.14-0.02-7.94,0.77-7.94,7.87
		c0,7,0.79,7.82,7.53,7.83C84.21,114.09,84.92,113.39,84.92,106.21z M111.42,144.58c6.85,0,7.81-0.93,7.83-7.6
		c0.02-7.09-0.88-8.02-7.88-8.02c-6.86-0.01-7.81,0.91-7.82,7.62C103.55,143.71,104.4,144.59,111.42,144.58z M111.36,114.08
		c6.9,0,7.9-1.02,7.89-8.06c-0.02-6.61-1.08-7.64-7.87-7.64c-6.82,0-7.81,0.97-7.83,7.62C103.53,113.19,104.39,114.08,111.36,114.08
		z M84.92,136.86c0.01-7.16-0.64-7.86-7.4-7.9c-7.2-0.05-8.03,0.75-8.04,7.75c-0.01,7.07,0.73,7.85,7.44,7.87
		C84.28,144.61,84.91,144.01,84.92,136.86z M111.14,175.06c7.2,0.01,8.11-0.85,8.11-7.72c0-6.8-0.92-7.74-7.64-7.78
		c-7.23-0.04-8.05,0.75-8.05,7.76C103.55,174.25,104.33,175.05,111.14,175.06z M84.92,75.87c0.01-7.26-0.65-7.99-7.29-8.01
		c-7.26-0.03-8.14,0.8-8.15,7.7c-0.01,7.14,0.83,8,7.83,7.99C84.19,83.55,84.91,82.82,84.92,75.87z M50.77,75.98
		c0.02-7.46-0.59-8.11-7.63-8.12c-7,0-7.77,0.74-7.78,7.54c-0.02,7.34,0.74,8.15,7.65,8.15C49.94,83.56,50.75,82.77,50.77,75.98z
		 M50.77,106.07c-0.01-6.86-0.82-7.67-7.66-7.68c-6.98-0.01-7.76,0.8-7.76,8.05c0,6.87,0.78,7.64,7.67,7.65
		C50.08,114.09,50.78,113.36,50.77,106.07z M50.77,136.72c-0.01-6.97-0.75-7.74-7.54-7.76c-7.11-0.02-7.87,0.74-7.87,7.89
		c0,7.05,0.72,7.75,7.99,7.73C50.07,144.57,50.77,143.82,50.77,136.72z M77.33,175.06c6.91-0.01,7.54-0.66,7.54-7.75
		c0-7.06-0.62-7.7-7.6-7.7c-7.16-0.01-7.81,0.67-7.8,8C69.49,174.42,70.18,175.07,77.33,175.06z M50.77,167.65
		c0.02-7.43-0.55-8.03-7.61-8.05c-7.1-0.01-7.77,0.63-7.8,7.43c-0.03,7.32,0.58,7.99,7.2,8.02
		C50.22,175.1,50.75,174.62,50.77,167.65z"/>
	<path class="st0" d="M247.95,255.32c4.82-3.93,5.46-8.94,5.3-14.36c-0.15-5.21,0.08-10.43-0.15-15.64
		c-0.29-6.56-3.83-10.24-10.36-10.51c-6.39-0.27-12.82-0.27-19.21,0c-6.7,0.27-10.35,4.02-10.61,10.83
		c-0.24,6.25-0.11,12.51-0.03,18.77c0.06,4.32,1.95,7.73,5.69,9.86c-0.51,1.53-1.59,1.03-2.35,1.03
		c-13.26,0.04-26.52-0.09-39.78,0.09c-4.11,0.06-5.39-1.41-5.37-5.46c0.13-29.35,0.07-58.7,0.08-88.05c0-3.6,0.5-7.11,1.77-10.51
		c0.65-1.74,1.39-2.97,3.54-2.14c2.58,1,5.29,0.72,7.96,0.72c32.48,0.01,64.96,0.01,97.44,0c1.79,0,3.77,0.41,5.32-0.21
		c4.66-1.85,6,0.56,6.88,4.45c0.66,2.94,0.92,5.88,0.92,8.86c0.01,28.75,0.01,57.51,0,86.26c0,5.94-0.05,5.99-5.97,6
		C275.33,255.34,261.64,255.32,247.95,255.32z M233.26,200.86c6.62-0.02,7.65-1.08,7.66-7.83c0.01-6.83-1.08-7.89-8.12-7.86
		c-6.64,0.02-7.58,0.99-7.58,7.86C225.23,200.02,226.11,200.88,233.26,200.86z M274.21,193.17c0.01-7.03-0.85-7.97-7.38-8
		c-7.28-0.04-8.06,0.7-8.07,7.7c-0.01,7.24,0.65,7.97,7.3,7.99C273.34,200.89,274.2,200.07,274.21,193.17z M207.33,193.07
		c0-7.07-0.86-7.92-7.93-7.9c-6.7,0.02-7.48,0.85-7.48,7.85c0,7,0.78,7.83,7.45,7.85C206.58,200.88,207.33,200.14,207.33,193.07z"/>
</g>
</svg>
