<?xml version="1.0" encoding="utf-8"?>
<!-- Generator: Adobe Illustrator 24.1.1, SVG Export Plug-In . SVG Version: 6.00 Build 0)  -->
<svg version="1.1" id="Capa_1" xmlns="http://www.w3.org/2000/svg" xmlns:xlink="http://www.w3.org/1999/xlink" x="0px" y="0px"
	 viewBox="0 0 300 300" style="enable-background:new 0 0 300 300;" xml:space="preserve">
<style type="text/css">
	.st0{fill:#003770;}
	.st1{fill:#00366F;}
	.st2{fill:#00366E;}
	.st3{fill:none;}
	.st4{fill:#CA9E67;enable-background:new    ;}
	.st5{fill:#8E715A;}
	.st6{fill:#68AA65;}
	.st7{fill:#022342;enable-background:new    ;}
	.st8{opacity:0.8;fill:#FCEA10;enable-background:new    ;}
	.st9{fill:#2B4C6B;enable-background:new    ;}
	.st10{fill:#E24453;enable-background:new    ;}
	.st11{fill:#212121;enable-background:new    ;}
	.st12{fill:#CA9E67;}
	.st13{fill:#828282;}
</style>
<g>
	<path class="st0" d="M161.35,5c0.4,2.32,2.55,1.97,3.99,2.38c9.64,2.78,18,7.72,25.07,14.77c25.92,25.86,51.98,51.58,77.61,77.73
		c15.41,15.72,20.36,34.77,13.81,55.9c-6.43,20.74-20.9,33.66-42.13,38.05c-19.19,3.97-36.16-1.42-50.23-15.05
		c-12.21-11.83-24.16-23.93-36.06-36.08c-2.69-2.74-4.35-2.68-7.01,0.03c-11.9,12.14-23.82,24.28-36.07,36.07
		c-15.63,15.04-34.26,20.02-55.07,13.76C34.08,186.2,21,171.5,16.6,149.91c-3.72-18.27,0.82-35,13.88-48.37
		c26.55-27.17,53.6-53.86,80.5-80.68c6.76-6.75,15-11.01,24.15-13.63c1.49-0.43,3.55-0.04,4.15-2.22C146.64,5,154,5,161.35,5z"/>
	<path class="st0" d="M158.18,294.68c19.29-9.16,27.56-22.55,24.05-39.71c-3.08-15.1-16.95-26.36-32.35-26.27
		c-15.74,0.1-29.24,11.3-32.35,26.84c-3.32,16.63,5.45,30.32,26,39.23c-16.3-0.57-31.48,1.37-46.45-0.95
		c-21.8-3.39-37.69-22.26-38.02-44.32c-0.23-15.16,0.05-30.33-0.11-45.5c-0.05-4.23,1.38-5.02,5.46-4.57
		c18.1,2.01,33.98-3.25,47.09-15.94c11.88-11.51,23.51-23.29,35.09-35.1c2.51-2.56,4.08-2.62,6.62-0.03
		c11.25,11.49,22.63,22.87,34.1,34.15c13.62,13.39,29.97,19.14,49.01,16.88c2.5-0.3,4.74-0.59,4.72,2.96
		c-0.12,17,1.13,34.06-0.49,50.98c-2.3,24.01-22.06,41.27-46.1,41.34C182.36,294.71,170.27,294.68,158.18,294.68z"/>
</g>
</svg>
